<svg xmlns="http://www.w3.org/2000/svg" xmlns:xlink="http://www.w3.org/1999/xlink" width="500" zoomAndPan="magnify" viewBox="0 0 375 374.999991" height="500" preserveAspectRatio="xMidYMid meet" version="1.0"><defs><g/><clipPath id="86edfb3ae1"><path d="M 119.019531 82 L 250 82 L 250 194 L 119.019531 194 Z M 119.019531 82 " clip-rule="nonzero"/></clipPath><clipPath id="c0f10825db"><path d="M 191 151 L 256 151 L 256 194.496094 L 191 194.496094 Z M 191 151 " clip-rule="nonzero"/></clipPath></defs><path fill="#b957ce" d="M 174.785156 180.039062 C 173.070312 179.878906 171.382812 179.5625 169.726562 179.089844 C 169.898438 181.140625 170.210938 183.167969 170.660156 185.175781 C 171.101562 187.1875 171.6875 189.15625 172.410156 191.085938 C 177.339844 191.449219 182.507812 190.722656 187.597656 189.109375 L 187.789062 189.058594 L 187.824219 189.058594 L 187.921875 189.035156 C 186.078125 186.128906 184.605469 183.046875 183.503906 179.785156 C 180.609375 180.234375 177.703125 180.320312 174.785156 180.039062 Z M 174.785156 180.039062 " fill-opacity="1" fill-rule="nonzero"/><path fill="#b957ce" d="M 169.652344 177.9375 C 170.894531 178.21875 172.148438 178.417969 173.414062 178.542969 C 176.625 178.847656 179.820312 178.726562 182.996094 178.179688 C 182.660156 177.027344 182.359375 175.84375 182.109375 174.644531 C 181.59375 172.171875 181.289062 169.671875 181.195312 167.148438 C 178.796875 167.421875 176.398438 167.445312 173.996094 167.210938 C 172.792969 167.09375 171.601562 166.902344 170.421875 166.632812 C 169.6875 170.371094 169.429688 174.136719 169.652344 177.9375 Z M 169.652344 177.9375 " fill-opacity="1" fill-rule="nonzero"/><g clip-path="url(#86edfb3ae1)"><path fill="#b957ce" d="M 243.535156 112.875 C 243.054688 109.945312 241.148438 107.933594 238.84375 107.933594 L 211.765625 107.933594 C 211.488281 105.6875 210.972656 103.492188 210.222656 101.355469 C 209.46875 99.21875 208.5 97.183594 207.308594 95.253906 C 206.121094 93.324219 204.738281 91.539062 203.167969 89.90625 C 201.59375 88.269531 199.863281 86.820312 197.980469 85.558594 C 197.207031 85.035156 196.402344 84.574219 195.5625 84.171875 C 194.722656 83.769531 193.859375 83.429688 192.96875 83.160156 C 192.078125 82.886719 191.171875 82.679688 190.25 82.542969 C 189.332031 82.402344 188.402344 82.335938 187.472656 82.335938 C 186.539062 82.335938 185.613281 82.402344 184.691406 82.542969 C 183.773438 82.679688 182.867188 82.886719 181.976562 83.160156 C 181.085938 83.429688 180.21875 83.769531 179.378906 84.171875 C 178.539062 84.574219 177.734375 85.035156 176.964844 85.558594 C 170.140625 90.152344 164.863281 97.695312 163.488281 107.929688 L 136.421875 107.929688 C 134.105469 107.929688 132.210938 109.941406 131.722656 112.871094 L 119.636719 186.1875 C 119.027344 189.898438 121.644531 193.628906 124.824219 193.628906 L 147.59375 193.628906 C 142.308594 191.808594 137.453125 189.195312 133.023438 185.785156 C 139.484375 189.320312 146.808594 191.527344 154.648438 192.433594 C 155.070312 192.484375 155.492188 192.527344 155.914062 192.566406 L 155.972656 192.566406 C 154.9375 190.199219 154.117188 187.757812 153.507812 185.246094 C 147.839844 161.808594 162.164062 137.746094 185.972656 132.527344 C 188.222656 132.035156 190.496094 131.726562 192.796875 131.609375 L 194.027344 131.566406 L 194.285156 131.566406 L 194.972656 131.601562 L 198.921875 131.8125 L 200.050781 131.875 L 201.925781 131.976562 C 201.789062 132.007812 201.652344 132.046875 201.507812 132.089844 C 217.382812 134.632812 230.648438 146.21875 235.269531 162.195312 C 237.816406 159.914062 240.253906 157.554688 242.589844 155.113281 C 244.921875 152.671875 247.144531 150.167969 249.257812 147.601562 Z M 169.019531 107.933594 C 171.078125 94.132812 176.019531 86.671875 187.179688 86.671875 C 198.339844 86.671875 203.273438 94.125 205.332031 107.933594 Z M 169.019531 107.933594 " fill-opacity="1" fill-rule="nonzero"/></g><path fill="#b957ce" d="M 196.234375 135.222656 C 194.308594 137.226562 192.574219 139.386719 191.035156 141.699219 C 189.492188 144.015625 188.171875 146.445312 187.070312 148.996094 C 185.96875 151.546875 185.101562 154.175781 184.46875 156.878906 C 183.839844 159.585938 183.453125 162.324219 183.3125 165.097656 C 185.203125 164.730469 187.058594 164.246094 188.886719 163.644531 L 189.082031 163.597656 L 189.121094 163.578125 C 193.890625 162.285156 198.136719 160.023438 201.871094 156.792969 C 205.980469 153.261719 209.109375 149.007812 211.246094 144.03125 C 210.265625 146.933594 208.917969 149.65625 207.203125 152.199219 C 205.488281 154.742188 203.46875 157.011719 201.140625 159.015625 C 197.636719 162.03125 193.660156 164.171875 189.210938 165.445312 L 189.210938 165.421875 C 187.261719 166.035156 185.277344 166.511719 183.257812 166.847656 C 183.210938 170.210938 183.53125 173.542969 184.214844 176.835938 C 184.285156 177.199219 184.367188 177.5625 184.445312 177.902344 C 186.152344 177.554688 187.832031 177.113281 189.484375 176.574219 L 189.679688 176.527344 L 189.714844 176.527344 C 194.40625 175.273438 198.597656 173.074219 202.292969 169.929688 C 206.339844 166.5 209.425781 162.359375 211.546875 157.507812 C 210.574219 160.339844 209.242188 162.996094 207.550781 165.46875 C 205.859375 167.945312 203.871094 170.152344 201.582031 172.09375 C 198.113281 175.035156 194.191406 177.125 189.808594 178.359375 L 189.808594 178.332031 C 188.183594 178.835938 186.539062 179.246094 184.867188 179.5625 C 185.738281 182.804688 186.96875 185.90625 188.554688 188.867188 C 192.882812 187.609375 196.765625 185.535156 200.210938 182.636719 C 204.191406 179.3125 207.226562 175.277344 209.320312 170.539062 C 208.363281 173.304688 207.054688 175.894531 205.390625 178.304688 C 203.726562 180.714844 201.773438 182.859375 199.523438 184.738281 C 198.308594 185.742188 197.027344 186.652344 195.675781 187.464844 C 205.292969 183.796875 214.296875 178.988281 222.695312 173.042969 C 226.25 170.554688 229.648438 167.917969 232.894531 165.136719 C 233.230469 164.851562 233.566406 164.558594 233.90625 164.261719 C 228.339844 147.351562 213.3125 135.726562 196.234375 135.222656 Z M 196.234375 135.222656 " fill-opacity="1" fill-rule="nonzero"/><path fill="#b957ce" d="M 172.953125 192.46875 C 173.039062 192.6875 173.132812 192.902344 173.222656 193.117188 C 174.316406 192.976562 175.445312 192.816406 176.566406 192.628906 C 175.402344 192.644531 174.242188 192.597656 173.082031 192.484375 Z M 172.953125 192.46875 " fill-opacity="1" fill-rule="nonzero"/><path fill="#b957ce" d="M 181.160156 165.457031 C 181.167969 162.945312 181.375 160.449219 181.785156 157.96875 C 182.195312 155.492188 182.804688 153.058594 183.609375 150.679688 C 184.414062 148.296875 185.40625 145.996094 186.582031 143.777344 C 187.761719 141.554688 189.113281 139.441406 190.632812 137.4375 C 180.46875 143.507812 173.316406 153.765625 170.6875 165.40625 C 171.324219 165.511719 171.964844 165.59375 172.621094 165.660156 C 175.476562 165.929688 178.324219 165.863281 181.160156 165.457031 Z M 181.160156 165.457031 " fill-opacity="1" fill-rule="nonzero"/><path fill="#b957ce" d="M 158.3125 185.851562 C 161.652344 188.5625 165.960938 190.367188 171.148438 190.964844 C 170.019531 188.398438 169.148438 185.75 168.539062 183.015625 C 168.199219 181.5 167.941406 179.976562 167.765625 178.433594 C 164.722656 177.296875 162.074219 175.566406 159.820312 173.234375 C 162.15625 175.136719 164.769531 176.527344 167.65625 177.402344 C 167.300781 173.578125 167.441406 169.769531 168.085938 165.980469 C 164.503906 164.84375 161.417969 162.917969 158.820312 160.207031 C 161.617188 162.503906 164.773438 164.078125 168.292969 164.929688 C 168.859375 161.988281 169.71875 159.128906 170.859375 156.355469 C 172 153.585938 173.410156 150.953125 175.078125 148.460938 C 176.75 145.96875 178.652344 143.667969 180.785156 141.554688 C 182.917969 139.441406 185.242188 137.5625 187.75 135.914062 C 187.40625 135.980469 187.058594 136.050781 186.710938 136.128906 C 163.765625 141.144531 150.070312 164.949219 155.648438 188.285156 C 156.078125 190.078125 156.613281 191.835938 157.261719 193.5625 C 161.875 193.910156 166.484375 193.847656 171.085938 193.378906 L 172.035156 193.277344 L 172.25 193.253906 C 172.089844 192.953125 171.9375 192.648438 171.789062 192.34375 C 166.171875 191.527344 161.613281 189.234375 158.3125 185.851562 Z M 158.3125 185.851562 " fill-opacity="1" fill-rule="nonzero"/><g clip-path="url(#c0f10825db)"><path fill="#b957ce" d="M 255.621094 187.054688 L 249.773438 151.527344 C 245.480469 157.707031 240.613281 163.394531 235.171875 168.597656 C 234.785156 168.972656 234.394531 169.335938 234.003906 169.6875 C 230.585938 172.878906 226.984375 175.847656 223.199219 178.59375 C 212.871094 186.101562 202.011719 191.367188 191.34375 194.46875 L 250.433594 194.46875 C 253.617188 194.492188 256.238281 190.761719 255.621094 187.054688 Z M 235.074219 188.238281 C 236.324219 182.71875 236.515625 177.160156 235.648438 171.566406 C 235.558594 170.96875 235.460938 170.375 235.347656 169.785156 C 235.734375 169.421875 236.125 169.058594 236.507812 168.675781 C 236.507812 168.695312 236.507812 168.714844 236.507812 168.734375 C 237.515625 175.34375 237.039062 181.84375 235.074219 188.238281 Z M 235.074219 188.238281 " fill-opacity="1" fill-rule="nonzero"/></g><g fill="#4533bc" fill-opacity="1"><g transform="translate(34.093803, 237.977212)"><g><path d="M 3.28125 0 L 3.28125 -26.75 L 22.890625 -26.75 L 22.890625 -22.265625 L 8.40625 -22.265625 L 8.40625 -15.65625 L 21.390625 -15.65625 L 21.390625 -11.1875 L 8.40625 -11.1875 L 8.40625 -4.46875 L 23.34375 -4.46875 L 23.34375 0 Z M 3.28125 0 "/></g></g></g><g fill="#4533bc" fill-opacity="1"><g transform="translate(59.346025, 237.977212)"><g><path d="M 21.921875 -8.296875 L 21.921875 -26.75 L 26.890625 -26.75 L 26.890625 0 L 22.046875 0 L 8.296875 -18.40625 L 8.296875 0 L 3.28125 0 L 3.28125 -26.75 L 8.140625 -26.75 Z M 21.921875 -8.296875 "/></g></g></g><g fill="#4533bc" fill-opacity="1"><g transform="translate(89.52644, 237.977212)"><g><path d="M 15.4375 -27.09375 C 18.082031 -27.09375 20.492188 -26.492188 22.671875 -25.296875 C 24.847656 -24.097656 26.5625 -22.453125 27.8125 -20.359375 C 29.0625 -18.273438 29.6875 -15.957031 29.6875 -13.40625 C 29.6875 -10.863281 29.0625 -8.539062 27.8125 -6.4375 C 26.5625 -4.332031 24.847656 -2.671875 22.671875 -1.453125 C 20.492188 -0.234375 18.082031 0.375 15.4375 0.375 C 12.789062 0.375 10.375 -0.234375 8.1875 -1.453125 C 6.007812 -2.671875 4.296875 -4.332031 3.046875 -6.4375 C 1.804688 -8.539062 1.1875 -10.863281 1.1875 -13.40625 C 1.1875 -15.957031 1.804688 -18.273438 3.046875 -20.359375 C 4.296875 -22.453125 6.007812 -24.097656 8.1875 -25.296875 C 10.375 -26.492188 12.789062 -27.09375 15.4375 -27.09375 Z M 15.515625 -22.5 C 13.878906 -22.5 12.359375 -22.097656 10.953125 -21.296875 C 9.554688 -20.492188 8.453125 -19.398438 7.640625 -18.015625 C 6.828125 -16.628906 6.421875 -15.09375 6.421875 -13.40625 C 6.421875 -11.726562 6.832031 -10.1875 7.65625 -8.78125 C 8.488281 -7.382812 9.597656 -6.273438 10.984375 -5.453125 C 12.367188 -4.640625 13.878906 -4.234375 15.515625 -4.234375 C 17.117188 -4.234375 18.609375 -4.640625 19.984375 -5.453125 C 21.359375 -6.273438 22.445312 -7.382812 23.25 -8.78125 C 24.050781 -10.1875 24.453125 -11.726562 24.453125 -13.40625 C 24.453125 -15.09375 24.050781 -16.628906 23.25 -18.015625 C 22.445312 -19.398438 21.359375 -20.492188 19.984375 -21.296875 C 18.609375 -22.097656 17.117188 -22.5 15.515625 -22.5 Z M 15.515625 -22.5 "/></g></g></g><g fill="#4533bc" fill-opacity="1"><g transform="translate(120.432718, 237.977212)"><g><path d="M 22.65625 -19.03125 C 21.707031 -20.125 20.585938 -20.972656 19.296875 -21.578125 C 18.015625 -22.191406 16.710938 -22.5 15.390625 -22.5 C 13.734375 -22.5 12.21875 -22.101562 10.84375 -21.3125 C 9.46875 -20.53125 8.382812 -19.441406 7.59375 -18.046875 C 6.8125 -16.660156 6.421875 -15.140625 6.421875 -13.484375 C 6.421875 -11.828125 6.8125 -10.304688 7.59375 -8.921875 C 8.382812 -7.535156 9.46875 -6.441406 10.84375 -5.640625 C 12.21875 -4.835938 13.734375 -4.4375 15.390625 -4.4375 C 16.671875 -4.4375 17.953125 -4.710938 19.234375 -5.265625 C 20.523438 -5.828125 21.664062 -6.609375 22.65625 -7.609375 L 25.671875 -4.234375 C 24.273438 -2.804688 22.644531 -1.679688 20.78125 -0.859375 C 18.925781 -0.0351562 17.039062 0.375 15.125 0.375 C 12.550781 0.375 10.195312 -0.234375 8.0625 -1.453125 C 5.925781 -2.671875 4.242188 -4.332031 3.015625 -6.4375 C 1.796875 -8.539062 1.1875 -10.863281 1.1875 -13.40625 C 1.1875 -15.957031 1.804688 -18.273438 3.046875 -20.359375 C 4.296875 -22.453125 6 -24.097656 8.15625 -25.296875 C 10.3125 -26.492188 12.695312 -27.09375 15.3125 -27.09375 C 17.226562 -27.09375 19.101562 -26.707031 20.9375 -25.9375 C 22.769531 -25.175781 24.335938 -24.117188 25.640625 -22.765625 Z M 22.65625 -19.03125 "/></g></g></g><g fill="#4533bc" fill-opacity="1"><g transform="translate(147.022045, 237.977212)"><g><path d="M 3.28125 0 L 3.28125 -26.75 L 8.40625 -26.75 L 8.40625 -15.3125 L 21.734375 -15.3125 L 21.734375 -26.75 L 26.859375 -26.75 L 26.859375 0 L 21.734375 0 L 21.734375 -10.84375 L 8.40625 -10.84375 L 8.40625 0 Z M 3.28125 0 "/></g></g></g><g fill="#4533bc" fill-opacity="1"><g transform="translate(177.202459, 237.977212)"><g/></g></g><g fill="#4533bc" fill-opacity="1"><g transform="translate(187.517281, 237.977212)"><g><path d="M 22.65625 -19.03125 C 21.707031 -20.125 20.585938 -20.972656 19.296875 -21.578125 C 18.015625 -22.191406 16.710938 -22.5 15.390625 -22.5 C 13.734375 -22.5 12.21875 -22.101562 10.84375 -21.3125 C 9.46875 -20.53125 8.382812 -19.441406 7.59375 -18.046875 C 6.8125 -16.660156 6.421875 -15.140625 6.421875 -13.484375 C 6.421875 -11.828125 6.8125 -10.304688 7.59375 -8.921875 C 8.382812 -7.535156 9.46875 -6.441406 10.84375 -5.640625 C 12.21875 -4.835938 13.734375 -4.4375 15.390625 -4.4375 C 16.671875 -4.4375 17.953125 -4.710938 19.234375 -5.265625 C 20.523438 -5.828125 21.664062 -6.609375 22.65625 -7.609375 L 25.671875 -4.234375 C 24.273438 -2.804688 22.644531 -1.679688 20.78125 -0.859375 C 18.925781 -0.0351562 17.039062 0.375 15.125 0.375 C 12.550781 0.375 10.195312 -0.234375 8.0625 -1.453125 C 5.925781 -2.671875 4.242188 -4.332031 3.015625 -6.4375 C 1.796875 -8.539062 1.1875 -10.863281 1.1875 -13.40625 C 1.1875 -15.957031 1.804688 -18.273438 3.046875 -20.359375 C 4.296875 -22.453125 6 -24.097656 8.15625 -25.296875 C 10.3125 -26.492188 12.695312 -27.09375 15.3125 -27.09375 C 17.226562 -27.09375 19.101562 -26.707031 20.9375 -25.9375 C 22.769531 -25.175781 24.335938 -24.117188 25.640625 -22.765625 Z M 22.65625 -19.03125 "/></g></g></g><g fill="#4533bc" fill-opacity="1"><g transform="translate(214.106608, 237.977212)"><g><path d="M 3.28125 0 L 3.28125 -26.75 L 8.40625 -26.75 L 8.40625 0 Z M 3.28125 0 "/></g></g></g><g fill="#4533bc" fill-opacity="1"><g transform="translate(225.796747, 237.977212)"><g><path d="M 0.3125 -22.203125 L 0.3125 -26.75 L 22.125 -26.75 L 22.125 -22.203125 L 13.796875 -22.203125 L 13.796875 0 L 8.640625 0 L 8.640625 -22.203125 Z M 0.3125 -22.203125 "/></g></g></g><g fill="#4533bc" fill-opacity="1"><g transform="translate(248.260147, 237.977212)"><g><path d="M 3.28125 0 L 3.28125 -26.75 L 8.40625 -26.75 L 8.40625 0 Z M 3.28125 0 "/></g></g></g><g fill="#4533bc" fill-opacity="1"><g transform="translate(259.950286, 237.977212)"><g><path d="M 1.796875 -22.265625 L 1.828125 -26.75 L 23.984375 -26.75 L 23.984375 -23.15625 L 8.25 -4.46875 L 24.1875 -4.46875 L 24.1875 0 L 1.34375 0 L 1.34375 -3.625 L 17.078125 -22.265625 Z M 1.796875 -22.265625 "/></g></g></g><g fill="#4533bc" fill-opacity="1"><g transform="translate(285.469946, 237.977212)"><g><path d="M 3.28125 0 L 3.28125 -26.75 L 22.890625 -26.75 L 22.890625 -22.265625 L 8.40625 -22.265625 L 8.40625 -15.65625 L 21.390625 -15.65625 L 21.390625 -11.1875 L 8.40625 -11.1875 L 8.40625 -4.46875 L 23.34375 -4.46875 L 23.34375 0 Z M 3.28125 0 "/></g></g></g><g fill="#4533bc" fill-opacity="1"><g transform="translate(310.722157, 237.977212)"><g><path d="M 21.921875 -8.296875 L 21.921875 -26.75 L 26.890625 -26.75 L 26.890625 0 L 22.046875 0 L 8.296875 -18.40625 L 8.296875 0 L 3.28125 0 L 3.28125 -26.75 L 8.140625 -26.75 Z M 21.921875 -8.296875 "/></g></g></g></svg>